    <svg xmlns="http://www.w3.org/2000/svg">
    <symbol id="search"
    >
    <path
    d="M17.6932 16.0568L14.2159 12.5795C15.2386 11.25 15.75 9.61364 15.75 7.875C15.75 3.47727 12.2727 0 7.875 0C3.47727 0 0 3.47727 0 7.875C0 12.2727 3.47727 15.75 7.875 15.75C9.61364 15.75 11.25 15.1364 12.5795 14.2159L16.0568 17.6932C16.2614 17.8977 16.4659 18 16.875 18C17.4886 18 18 17.4886 18 16.875C18 16.6705 17.8977 16.3636 17.6932 16.0568ZM2.25 7.875C2.25 4.80682 4.80682 2.25 7.875 2.25C10.9432 2.25 13.5 4.80682 13.5 7.875C13.5 10.9432 10.9432 13.5 7.875 13.5C4.80682 13.5 2.25 10.9432 2.25 7.875Z"
    />
    </symbol>

    <symbol id="cart">
    <path d="M20.1884 6.85716H16.6377L13.1884 0.380944C12.9855 -8.61287e-06 12.5797 -0.0952351 12.1739 0.0952412C11.7681 0.285717 11.6667 0.66667 11.8696 1.04762L15.0145 6.85716H5.7826L8.92753 1.04762C9.13043 0.66667 8.92754 0.285717 8.6232 0.0952412C8.2174 -0.0952351 7.8116 0.0952295 7.6087 0.380944L4.1594 6.85716H0.811583C0.405785 6.85716 0 7.14286 0 7.61905C0 8 0.304336 8.38094 0.811583 8.38094H1.01449L1.92753 11.2381C1.72463 11.3333 1.62317 11.5238 1.62317 11.8095C1.62317 12.1905 1.92753 12.4762 2.33332 12.4762L4.05797 18H16.942L18.6667 12.4762C19.0725 12.4762 19.3768 12.1905 19.3768 11.8095C19.3768 11.619 19.2754 11.3333 19.0725 11.2381L19.9855 8.38094H20.1884C20.5942 8.38094 21 8.09524 21 7.61905C21 7.14286 20.5942 6.85716 20.1884 6.85716ZM15.6232 16.4762H5.07247L3.85506 12.381H16.942L15.6232 16.4762ZM17.2464 10.9524H3.34782L2.53623 8.28573H18.058L17.2464 10.9524Z"
    />
    </symbol>

    <symbol id="footer-logo"
      >
              <path
      d="M19.22 21.38c-.1-2.68-.5-5.27-.5-7.95 0-2.2.4-4.38-.4-6.47 0-.2.1-.5.1-.7.2-.99-3.3-.5-3.8.5-.3.3-.5.6-.4 1 0 .1.1.2.1.3-.7 3.18-1.6 6.26-2.6 9.34-.4 1.2-.9 2.3-1.3 3.48-.6-1.09-1.2-2.18-1.6-3.38-1.4-3.38-2.6-6.86-4.3-10.14.2-1.5-3.2-1.4-3.9 0-.8 1.69-.7 3.38-.4 5.17.3 1.99.4 3.98.4 6.07 0 3.97.4 7.85.4 11.83-.4.4-.5.9-.1 1.4.2.2.4.4.6.5 1 .69 3.6.09 3.6-1.3 0-4.08-.3-8.16-.4-12.33v-1.2c.1.1.1.3.2.4.6 1.6 1.3 3.18 2.2 4.67.9 1.5 1.3 3.09 1.8 4.68-.2.2-.3.5-.2.7 0 .2.1.3.3.4.6.49 1.8.3 2.5 0 .3-.1.6-.3.8-.4.3-.2.9-.7.7-1.2 0-.1-.1-.2-.1-.3.5-1.29.7-2.58 1-3.88.3-1.39.8-2.78 1.3-4.07.1.6.1 1.2.2 1.89.2 2.58 0 5.07 0 7.55 0 .8.1 1.6.2 2.5.1.29.4 1.78.3 1.88-.8.5-.6 1.1.2 1.3.9.2 2.1-.1 2.8-.7 1.2-1.1.6-2.79.4-4.18-.5-2.39 0-4.97-.1-7.36zM27.62 22.08c-.1-2-.8-3.88-.8-5.87 0-2.29.2-4.57-.2-6.86-.1-.7-4.1.1-3.9 1 .3 2.08.2 4.17.2 6.36 0 1.99.5 3.88.7 5.86.3 2.1-.1 4.18.1 6.17.1 1 .8 2.69.1 3.58-.4.5 1.5.3 1.6.3.8-.1 1.8-.4 2.3-1 .7-.8.2-2.38.1-3.38-.3-1.99-.1-4.17-.2-6.16zM43.92 18.8c-2.1-2.79-5.9-.8-8.6-1.5-1.4-.4-1.4-2.28-1.4-3.38 0-1.39-.1-2.68-.3-4.07-.1-1.1 0-2.1.7-2.89.1-.1.9-.3.8-.3.4-.1.7-.1 1.1-.1 1.5-.1 4.6.2 4 2.49-.3 1 3.6.4 3.9-.6 1.2-4.57-7.3-3.68-9.7-3.08-2.2.6-4.6 1.79-4.8 4.38-.1 1.19.3 2.38.3 3.58.1 1.39-.2 2.78.3 4.07 1.1 2.99 5.5 1.6 7.8 1.7 3.8.3 2.7 5.46 2.7 7.85 0 1.3 1.2 3.38.2 4.48-.6.7-2 .7-2.8.8-.8.1-2.2.29-2.7-.5-1-1.4.1-3.79-.1-5.38-.1-.9-4.1-.1-3.9 1 .3 2.58-1.4 6.06 2.4 6.56 2.4.3 5.2-.2 7.5-.9 1.2-.4 2.3-.89 3.2-1.78 1-.9.7-2.3.4-3.48-.5-3.09.9-6.47-1-8.95zM61.32 18.6c-.1-3.78-.7-7.46-.7-11.24 0-1.99-4-1.3-4 .3 0 3.58.5 7.16.7 10.74v.2c-1.9 0-3.9.2-5.9.2.2-4.58-.6-9.15-.4-13.83 0-.6-3.9-.1-3.9 1-.2 4.47.6 8.85.5 13.32l-.3 6.37c0 1.1.2 2.19.3 3.28.1 1 .5 2.29.2 3.28-.2.8 3.6.3 3.9-.7.5-1.79-.2-3.97-.4-5.76-.2-1.7 0-3.48.1-5.17 2-.1 4.1-.3 6.1 0l.3 4.07c.1 1.2.2 2.29.2 3.48 0 1 .1 2.49-.2 3.48-.8 2.1 3.1 1.9 3.7.4.7-1.89.5-4.17.4-6.16-.2-2.49-.6-4.88-.6-7.26zM78.22 22.97c-.9-2.78-2.4-5.17-3.6-7.75 1-1.9 2-3.88 2.9-5.87.8-1.8 1.4-3.78 3.1-5.07.6-.4.6-.9-.3-1-.9-.1-2.1.2-2.8.7-1.4 1.3-2.4 2.68-3.1 4.37-.9 2.1-1.9 4.08-2.9 6.07-.1.1-.1.3-.2.4-.5.3-.8.8-.6 1.3a66.9 66.9 0 0 1-2.5 4.57c-.3-5.47-1-11.04-1.2-16.51 0-1.3-4-.5-3.9 1 .2 6.85 1.2 13.62 1.3 20.48v.1c-.3.3-.2.5.1.6 0 1.78-.1 3.47-.2 5.26-.5.7.5 1.1 1.1 1.1h.1c.7 0 2.6-.3 2.7-1.4.2-2.08.3-4.17.2-6.26 1.6-1.69 2.9-3.58 4.1-5.57.8 1.5 1.5 2.99 2 4.58.9 2.68 2.3 5.27 3.1 7.95.5 1.8 4.5.7 3.9-1-1-2.78-2.4-5.26-3.3-8.05zM101.72 18.4c-.2-.8-1.4-.8-2.3-.8v-1c-.1-2.68-.2-5.36-.4-7.95-.2-2.48-1.6-3.28-4-3.18-2.4.1-5.2.5-7.5 1.4-2.6.99-4.1 2.88-4.6 5.66-.5 2.98.2 6.17.4 9.15.2 3.48.1 6.96.1 10.44 0 .6 3.9 0 3.9-1v-8.25c0-.8-.1-1.59-.1-2.38 1.4-.6 3.7 0 5.1.1 1.1.1 2.2-.2 3.2-.3 0 2.29.1 4.57.2 6.86 0 1.2.5 3.48-.4 4.47-.4.5 1.5.3 1.6.3.8-.1 1.8-.4 2.3-1 .9-1.09.5-3.77.4-5.06-.1-1.9-.1-3.78-.1-5.67 1.1-.2 2.4-.9 2.2-1.8zm-14.6-.1l-.3-3.68c-.2-2.29.1-5.57 2.3-6.96.6-.4 1.7-.3 2.4-.4 1-.2 2-.4 2.8.2 1.2.8.9 3.68.9 4.87 0 2 .2 3.98.3 5.97-.6.1-1.1.1-1.7.1-2.3-.2-4.6-.6-6.7-.1zM24.22 6.66c.5-.1 1-.2 1.5-.5l.2-.2c.5-.3 1-.79.7-1.39-.5-1.09-.4-2.18-.4-3.38 0-1-1-1.19-1.8-1.19-.7.1-2.2.6-2.2 1.5 0 .99-.1 1.98.1 2.98 0 .1-.1.2-.1.4-.1.2 0 .4.1.59v.4c.1.2.2.4.4.5.6.3 1.1.3 1.5.3z"
              />
            </symbol>


    <symbol id="social-vk"
    >
<path d="M0.741211 2.33876C0.741211 1.48373 1.25631 1.02268 2.28652 0.955621L6.25636 0.980769C6.52279 0.980769 6.70042 1.10651 6.78923 1.35799C7.19776 2.61538 7.65513 3.70094 8.16135 4.61465C8.66758 5.52835 9.32922 6.58038 10.1463 7.77071C10.2173 7.9216 10.3328 7.99704 10.4926 7.99704C10.617 7.99704 10.7147 7.93836 10.7857 7.82101L10.8656 7.54438L10.8923 3.19379C10.8923 2.89201 10.8168 2.69083 10.6658 2.59024C10.5148 2.48965 10.2351 2.4142 9.82656 2.36391C9.50684 2.31361 9.34698 2.12919 9.34698 1.81065C9.34698 1.74359 9.35586 1.69329 9.37362 1.65976C9.74663 0.57002 10.8124 0.0251479 12.5708 0.0251479L14.0628 0C14.7378 0 15.2973 0.15927 15.7414 0.477811C16.1854 0.796351 16.4074 1.29931 16.4074 1.98669V7.69527C16.5318 7.77909 16.6472 7.82101 16.7538 7.82101C17.0202 7.82101 17.2511 7.67012 17.4465 7.36834C19.4004 4.78649 20.4572 3.05966 20.6171 2.18787C20.6171 2.1711 20.6348 2.12919 20.6704 2.06213C20.7947 1.81065 20.999 1.5927 21.2832 1.40828C21.5673 1.22387 21.816 1.09813 22.0292 1.03107C22.1002 0.997535 22.1801 0.980769 22.269 0.980769H26.3987L26.6651 1.00592C27.0203 1.00592 27.2956 1.16519 27.491 1.48373C27.5621 1.58432 27.6109 1.69329 27.6376 1.81065C27.6642 1.92801 27.682 2.04536 27.6909 2.16272C27.6997 2.28008 27.7042 2.34714 27.7042 2.36391V2.53994C27.5798 3.22732 27.2646 3.9608 26.7583 4.74038C26.2521 5.51997 25.6082 6.36243 24.8267 7.26775C24.0452 8.17308 23.5567 8.76825 23.3613 9.05326C23.2015 9.25444 23.1215 9.43886 23.1215 9.60651C23.1215 9.74063 23.1926 9.89152 23.3347 10.0592L27.2246 14.6864C27.4377 14.9546 27.5443 15.248 27.5443 15.5666C27.5443 15.9522 27.3845 16.2707 27.0647 16.5222C26.745 16.7737 26.3631 16.9162 25.9191 16.9497L25.4661 16.9749H21.4164C21.3986 16.9749 21.3631 16.979 21.3098 16.9874C21.2565 16.9958 21.221 17 21.2032 17C20.8125 17 20.4483 16.8407 20.1108 16.5222C19.9865 16.3881 19.1517 15.3989 17.6064 13.5547C17.5176 13.4374 17.3932 13.3284 17.2334 13.2278C17.1623 13.4961 17.0691 13.8817 16.9536 14.3846C16.8382 14.8876 16.7538 15.248 16.7005 15.466L16.6206 15.8935C16.443 16.4803 16.07 16.8323 15.5016 16.9497L15.1286 16.9749H12.5175C11.0433 16.9749 9.57345 16.3378 8.10807 15.0636C6.64269 13.7894 5.32385 12.1423 4.15155 10.122C2.97924 8.10182 1.88687 5.75049 0.874427 3.06805C0.785616 2.8501 0.741211 2.607 0.741211 2.33876ZM16.7538 8.85207C16.3808 8.85207 16.0433 8.75567 15.7414 8.56287C15.4394 8.37007 15.2884 8.10602 15.2884 7.77071V1.98669C15.2884 1.65138 15.1996 1.41248 15.022 1.26997C14.8444 1.12747 14.5335 1.05621 14.0895 1.05621L12.5708 1.10651C11.807 1.10651 11.2298 1.23225 10.839 1.48373C11.6205 1.8358 12.0113 2.40582 12.0113 3.19379V7.61982C11.9758 8.03895 11.7982 8.38683 11.4784 8.66346C11.1587 8.94009 10.8035 9.0784 10.4127 9.0784C9.87984 9.0784 9.47131 8.83531 9.18712 8.34911C7.80167 6.37081 6.77147 4.4931 6.0965 2.71598L5.85671 2.06213L2.31316 2.03698C2.08225 2.03698 1.95348 2.04956 1.92684 2.0747C1.90019 2.09985 1.88687 2.1711 1.88687 2.28846C1.88687 2.43935 1.90463 2.59862 1.94016 2.76627L2.49967 4.17456C3.99169 7.81262 5.61248 10.6795 7.36206 12.7751C9.11163 14.8708 10.8301 15.9186 12.5175 15.9186H15.1818C15.2884 15.9186 15.3684 15.8893 15.4216 15.8306C15.4749 15.7719 15.5193 15.6588 15.5549 15.4911L15.6081 15.2396L16.1144 13.0266C16.2565 12.7249 16.3808 12.5237 16.4874 12.4231C16.6828 12.2387 16.9137 12.1465 17.1801 12.1465C17.6064 12.1465 18.0416 12.3895 18.4856 12.8757L20.7503 15.5917C20.8924 15.8097 21.0434 15.9186 21.2032 15.9186H25.5994C26.1322 15.9186 26.3987 15.7929 26.3987 15.5414C26.3987 15.4576 26.372 15.3738 26.3187 15.2899L22.4555 10.7382C22.1535 10.3861 22.0025 10.0089 22.0025 9.60651C22.0025 9.20414 22.1446 8.81854 22.4288 8.4497C22.6597 8.1144 23.1082 7.55695 23.7743 6.77737C24.4404 5.99778 25.0221 5.26849 25.5194 4.5895C26.0168 3.9105 26.3454 3.29438 26.5052 2.74112L26.5852 2.4142C26.5674 2.38067 26.5585 2.32618 26.5585 2.25074C26.5585 2.1753 26.5496 2.11243 26.5319 2.06213H22.3489C22.0825 2.16272 21.8693 2.31361 21.7094 2.51479L21.5496 2.9926C21.1055 4.14941 19.9421 5.93491 18.0593 8.34911C17.6863 8.68442 17.2511 8.85207 16.7538 8.85207Z" fill="#231F20"/>
      </symbol>

    <symbol id="social-youtube">
  <path d="M16.5921 8.79275L11.3558 5.30184C11.2572 5.23691 11.1428 5.19985 11.0249 5.19459C10.907 5.18934 10.7898 5.21608 10.6858 5.27198C10.5818 5.32789 10.4949 5.41087 10.4342 5.51215C10.3736 5.61343 10.3414 5.72924 10.3412 5.84729V12.8291C10.3413 12.9481 10.3739 13.0648 10.4354 13.1667C10.4969 13.2686 10.5851 13.3518 10.6903 13.4073C10.7937 13.4631 10.9103 13.4895 11.0276 13.4837C11.1449 13.478 11.2584 13.4402 11.3558 13.3746L16.5921 9.88366C16.6821 9.82395 16.756 9.7429 16.807 9.64772C16.8581 9.55255 16.8849 9.44621 16.8849 9.3382C16.8849 9.23019 16.8581 9.12385 16.807 9.02868C16.756 8.93351 16.6821 8.85245 16.5921 8.79275ZM11.6503 11.6073V7.06911L15.0539 9.3382L11.6503 11.6073ZM24.1303 3.04366C24.0354 2.67547 23.8543 2.33511 23.6021 2.05061C23.3498 1.76611 23.0336 1.54561 22.6794 1.40729C18.9594 -0.0217993 12.9921 1.91553e-05 12.7412 1.91553e-05C12.4903 1.91553e-05 6.52303 -0.0217993 2.80303 1.40729C2.44885 1.54561 2.13261 1.76611 1.88036 2.05061C1.6281 2.33511 1.44705 2.67547 1.35212 3.04366C1.06848 4.11275 0.741211 6.07638 0.741211 9.3382C0.741211 12.6 1.06848 14.5637 1.35212 15.6327C1.44705 16.0009 1.6281 16.3413 1.88036 16.6258C2.13261 16.9103 2.44885 17.1308 2.80303 17.2691C6.52303 18.6982 12.4903 18.6764 12.7412 18.6764H12.8176C13.5703 18.6764 19.1339 18.6327 22.6794 17.2691C23.0336 17.1308 23.3498 16.9103 23.6021 16.6258C23.8543 16.3413 24.0354 16.0009 24.1303 15.6327C24.4139 14.5637 24.7412 12.6 24.7412 9.3382C24.7412 6.07638 24.4139 4.11275 24.1303 3.04366ZM22.8648 15.3055C22.8219 15.472 22.7402 15.6259 22.6265 15.7548C22.5127 15.8838 22.3701 15.984 22.2103 16.0473C18.7194 17.3891 12.8067 17.3673 12.7412 17.3673C12.6758 17.3673 6.76303 17.3891 3.27212 16.0473C3.11228 15.984 2.96967 15.8838 2.85592 15.7548C2.74217 15.6259 2.6605 15.472 2.61757 15.3055C2.35576 14.3018 2.0503 12.4582 2.0503 9.3382C2.0503 6.2182 2.35576 4.37457 2.61757 3.37093C2.6605 3.20445 2.74217 3.05047 2.85592 2.92156C2.96967 2.79264 3.11228 2.69243 3.27212 2.62911C6.76303 1.28729 12.6758 1.30911 12.7412 1.30911C12.8067 1.30911 18.7194 1.28729 22.2103 2.62911C22.3701 2.69243 22.5127 2.79264 22.6265 2.92156C22.7402 3.05047 22.8219 3.20445 22.8648 3.37093C23.1267 4.37457 23.4321 6.2182 23.4321 9.3382C23.4321 12.4582 23.1267 14.3018 22.8648 15.3055Z" fill="#231F20"/>
      </symbol>

    <symbol id="social-telegram"
      >
<path fill-rule="evenodd" clip-rule="evenodd" d="M20.202 0.152905C20.3805 0.302216 20.4667 0.534898 20.4284 0.764481L17.8023 16.5214C17.7656 16.7411 17.6201 16.9273 17.4157 17.0159C17.2112 17.1045 16.9759 17.0833 16.7905 16.9597L8.91203 11.7074C8.75892 11.6054 8.65568 11.4437 8.62745 11.2619C8.59922 11.08 8.64859 10.8947 8.76354 10.751L11.3742 7.48773L7.01424 10.3944C6.81821 10.525 6.56718 10.5407 6.35645 10.4353L1.10414 7.80915C0.868904 7.69153 0.726558 7.44488 0.742411 7.18235C0.758263 6.91983 0.929255 6.6921 1.17694 6.60364L19.56 0.0382579C19.7792 -0.0400244 20.0234 0.00359465 20.202 0.152905ZM3.06747 7.32275L6.60289 9.09046L14.1643 4.0495C14.4337 3.86994 14.7937 3.91349 15.0124 4.1521C15.2312 4.3907 15.2434 4.75314 15.0412 5.00591L10.2362 11.0121L16.674 15.3039L18.9496 1.65058L3.06747 7.32275Z" fill="#231F20"/>
      </symbol>

    <symbol id="logo-htmlacademy"
      >
              <path
      d="M13.6 0h-.1L0 1.4v24.7l13.5 8 13.4-8V1.4L13.6 0ZM25 12.1 13.5 5.3v-.1h-.1l-.1-.1v.1L1.9 12.1v-9l11.5-1.2L25 3.1v9ZM13.4 6.8l11.5 6.7-4.5 2.6-7.1-4.2v1.4l5.9 3.5-.9.5-5-3v1.4l3.8 2.3-.8.5-3-1.8v1.4l1.9 1.1-1.8 1.1L2 13.6l11.4-6.8ZM1.9 15.1l11.4 6.8v1l-7.9-4.7v1.4l8 4.8v1.1l-8-4.7v1.4l8 4.8 8.1-4.9v-5.2l3.4-2v10l-11.5 6.9L1.9 25v-9.9Z"
              />
            </symbol>

    <symbol id="phone-icon"
      >
          <path d="M17.44 24h-1.11c-4.939-.593-8.568-2.864-11.189-5.728C2.521 15.408.403 11.753 0 6.716V5.333c.1-.888.504-1.481 1.109-2.074.605-.69 1.613-1.481 2.52-1.58.706 0 1.815.494 2.218 1.087.403.493.605 1.58.806 2.37.202.889.605 1.975.504 2.765-.201 1.186-1.814 1.68-2.217 2.568 1.612 3.655 4.133 6.42 7.56 8.198.806-.494 1.613-1.877 2.823-1.877.403 0 1.008.198 1.41.297.505.098.908.296 1.311.493.706.297 2.017.593 2.42 1.186.403.592.705 1.58.605 2.172-.303 1.284-2.42 2.667-3.63 3.062ZM12.6 1.481c5.948 0 10.888 4.741 10.888 10.667H25C25 5.432 19.456 0 12.6 0v1.481Z"/>
          <path d="M12.6 9.185v1.58c.807 0 1.412.593 1.412 1.383h1.613c0-1.58-1.31-2.963-3.024-2.963ZM12.6 6.124c3.327 0 6.15 2.666 6.15 6.024h1.613c0-4.148-3.427-7.506-7.661-7.506v1.482H12.6Z"/>
          </symbol>

    <symbol id="email-icon"
      >
      <path
d="M28 0H4C1.8 0 0 1.8 0 4v13c0 2.2 1.8 4 4 4h24c2.2 0 4-1.8 4-4V4c0-2.2-1.8-4-4-4ZM2 5.3l7 5.3-7 5.3V5.3ZM30 17c0 1.1-.9 2-2 2H4c-1.1 0-2-.9-2-2l7.8-5.9 4.4 3.3c.5.4 1.2.6 1.8.6.6 0 1.3-.2 1.8-.6l4.4-3.3L30 17Zm0-1.2-7-5.3 7-5.3v10.6Zm-12.8-2.2c-.4.3-.8.4-1.2.4-.4 0-.9-.1-1.2-.4l-4.1-3.1-.8-.6L2 4c0-1.1.9-2 2-2h24c1.1 0 2 .9 2 2l-12.8 9.6Z"
/>
</symbol>
</svg>
